HIERARCHY
ROOT CG
{
	OFFSET 0.000000 0.000000 27.772259
	CHANNELS 6 Xposition Yposition Zposition Xrotation Yrotation Zrotation
	JOINT Pelvis
	{
		OFFSET 0.000000 0.000000 0.000000
		CHANNELS 3 Xrotation Yrotation Zrotation
		JOINT Spine
		{
			OFFSET -0.000017 -10.490843 -0.495483
			CHANNELS 3 Xrotation Yrotation Zrotation
			JOINT Spine1
			{
				OFFSET -0.000010 -22.678980 0.018061
				CHANNELS 3 Xrotation Yrotation Zrotation
				JOINT Spine2
				{
					OFFSET -0.000010 -22.678967 0.018061
					CHANNELS 3 Xrotation Yrotation Zrotation
					JOINT Spine3
					{
						OFFSET -0.000010 -22.678982 0.018059
						CHANNELS 3 Xrotation Yrotation Zrotation
						JOINT Neck
						{
							OFFSET -0.000012 -22.678986 -1.289251
							CHANNELS 3 Xrotation Yrotation Zrotation
							JOINT Neck1
							{
								OFFSET -0.000007 -16.255905 0.012947
								CHANNELS 3 Xrotation Yrotation Zrotation
								JOINT Head
								{
									OFFSET -0.000005 -10.784607 -0.287502
									CHANNELS 3 Xrotation Yrotation Zrotation
									JOINT Jaw01
									{
										OFFSET 0.000031 7.782959 5.073944
										CHANNELS 3 Xrotation Yrotation Zrotation
										JOINT Jaw02
										{
											OFFSET 0.000004 -34.927139 -18.883980
											CHANNELS 3 Xrotation Yrotation Zrotation
											End Site
											{
												OFFSET -0.000170 8.372803 -38.812450
											}
										}
									}
									JOINT Nose
									{
										OFFSET -0.000002 -25.700912 7.222265
										CHANNELS 3 Xrotation Yrotation Zrotation
										End Site
										{
											OFFSET -0.000090 0.641281 -21.715439
										}
									}
									JOINT L_EyeSocket
									{
										OFFSET 7.352326 -19.832718 14.164183
										CHANNELS 3 Xrotation Yrotation Zrotation
										JOINT L_Eye
										{
											OFFSET -0.000868 -0.001053 0.016003
											CHANNELS 3 Xrotation Yrotation Zrotation
											End Site
											{
												OFFSET -0.001505 -0.001846 0.027969
											}
										}
										JOINT L_Eyelid_Top
										{
											OFFSET -0.001004 -0.002625 0.032516
											CHANNELS 3 Xrotation Yrotation Zrotation
											End Site
											{
												OFFSET -0.013218 0.005753 0.024086
											}
										}
										JOINT L_Eyelid_Bottom
										{
											OFFSET -0.001194 -0.002777 0.035381
											CHANNELS 3 Xrotation Yrotation Zrotation
											End Site
											{
												OFFSET -0.010032 0.008636 -0.024754
											}
										}
									}
									JOINT R_EyeSocket
									{
										OFFSET -7.352252 -19.832748 14.164206
										CHANNELS 3 Xrotation Yrotation Zrotation
										JOINT R_Eye
										{
											OFFSET 0.000875 -0.001068 0.015991
											CHANNELS 3 Xrotation Yrotation Zrotation
											End Site
											{
												OFFSET 0.001505 -0.001846 0.027962
											}
										}
										JOINT R_Eyelid_Top
										{
											OFFSET 0.001021 -0.002625 0.032516
											CHANNELS 3 Xrotation Yrotation Zrotation
											End Site
											{
												OFFSET 0.013214 0.005753 0.024078
											}
										}
										JOINT R_Eyelid_Bottom
										{
											OFFSET 0.001170 -0.002762 0.035366
											CHANNELS 3 Xrotation Yrotation Zrotation
											End Site
											{
												OFFSET 0.010029 0.008636 -0.024746
											}
										}
									}
								}
								JOINT Neck_Fat
								{
									OFFSET 0.000044 -9.595100 -17.491512
									CHANNELS 3 Xrotation Yrotation Zrotation
									End Site
									{
										OFFSET -0.000036 15.369423 -0.000007
									}
								}
							}
						}
						JOINT L_Clavicle
						{
							OFFSET 4.567107 -11.666092 -3.750029
							CHANNELS 3 Xrotation Yrotation Zrotation
							JOINT L_UpperArm
							{
								OFFSET 20.725666 -0.000053 -0.000032
								CHANNELS 3 Xrotation Yrotation Zrotation
								JOINT L_Forearm
								{
									OFFSET 5.265112 -0.585754 -20.155697
									CHANNELS 3 Xrotation Yrotation Zrotation
									JOINT L_Hand
									{
										OFFSET 2.653017 -10.877708 -16.383667
										CHANNELS 3 Xrotation Yrotation Zrotation
										JOINT L_Finger0
										{
											OFFSET -4.206146 -4.328911 -5.034346
											CHANNELS 3 Xrotation Yrotation Zrotation
											JOINT L_Finger01
											{
												OFFSET 0.084272 -1.788536 -4.181065
												CHANNELS 3 Xrotation Yrotation Zrotation
												End Site
												{
													OFFSET 3.261885 3.094673 -0.685818
												}
											}
										}
										JOINT L_Finger1
										{
											OFFSET -1.039112 -6.775742 -3.499998
											CHANNELS 3 Xrotation Yrotation Zrotation
											JOINT L_Finger11
											{
												OFFSET 1.320335 -3.040672 -6.425793
												CHANNELS 3 Xrotation Yrotation Zrotation
												End Site
												{
													OFFSET -1.244579 6.832077 -2.013330
												}
											}
										}
										JOINT L_Finger2
										{
											OFFSET 2.531296 -5.656487 -3.286415
											CHANNELS 3 Xrotation Yrotation Zrotation
											JOINT L_Finger21
											{
												OFFSET 1.991665 -2.402016 -5.957748
												CHANNELS 3 Xrotation Yrotation Zrotation
												End Site
												{
													OFFSET -2.793068 5.800873 -1.944178
												}
											}
										}
										JOINT L_Finger3
										{
											OFFSET 5.474075 -3.302338 -2.655975
											CHANNELS 3 Xrotation Yrotation Zrotation
											JOINT L_Finger31
											{
												OFFSET 2.026943 -1.267532 -5.961166
												CHANNELS 3 Xrotation Yrotation Zrotation
												End Site
												{
													OFFSET -4.375172 4.343658 -1.800320
												}
											}
										}
										JOINT L_Finger4
										{
											OFFSET 4.825745 1.085899 -2.321970
											CHANNELS 3 Xrotation Yrotation Zrotation
											JOINT L_Finger41
											{
												OFFSET 3.358261 -1.829651 -3.744434
												CHANNELS 3 Xrotation Yrotation Zrotation
												End Site
												{
													OFFSET -3.843296 2.955200 -2.267633
												}
											}
										}
									}
								}
							}
						}
						JOINT R_Clavicle
						{
							OFFSET -4.567111 -11.666092 -3.750036
							CHANNELS 3 Xrotation Yrotation Zrotation
							JOINT R_UpperArm
							{
								OFFSET -20.725670 -0.000031 0.000038
								CHANNELS 3 Xrotation Yrotation Zrotation
								JOINT R_Forearm
								{
									OFFSET -5.265285 -0.585762 -20.155655
									CHANNELS 3 Xrotation Yrotation Zrotation
									JOINT R_Hand
									{
										OFFSET -2.653147 -10.877739 -16.383663
										CHANNELS 3 Xrotation Yrotation Zrotation
										JOINT R_Finger0
										{
											OFFSET 4.206116 -4.328888 -5.034388
											CHANNELS 3 Xrotation Yrotation Zrotation
											JOINT R_Finger01
											{
												OFFSET -0.084324 -1.788544 -4.181051
												CHANNELS 3 Xrotation Yrotation Zrotation
												End Site
												{
													OFFSET -3.261890 3.094666 -0.685791
												}
											}
										}
										JOINT R_Finger1
										{
											OFFSET 1.039101 -6.775711 -3.499994
											CHANNELS 3 Xrotation Yrotation Zrotation
											JOINT R_Finger11
											{
												OFFSET -1.320374 -3.040672 -6.425779
												CHANNELS 3 Xrotation Yrotation Zrotation
												End Site
												{
													OFFSET 1.244556 6.832077 -2.013342
												}
											}
										}
										JOINT R_Finger2
										{
											OFFSET -2.531307 -5.656464 -3.286409
											CHANNELS 3 Xrotation Yrotation Zrotation
											JOINT R_Finger21
											{
												OFFSET -1.991707 -2.402016 -5.957708
												CHANNELS 3 Xrotation Yrotation Zrotation
												End Site
												{
													OFFSET 2.793037 5.800858 -1.944197
												}
											}
										}
										JOINT R_Finger3
										{
											OFFSET -5.474091 -3.302330 -2.655947
											CHANNELS 3 Xrotation Yrotation Zrotation
											JOINT R_Finger31
											{
												OFFSET -2.026993 -1.267532 -5.961157
												CHANNELS 3 Xrotation Yrotation Zrotation
												End Site
												{
													OFFSET 4.375156 4.343674 -1.800358
												}
											}
										}
										JOINT R_Finger4
										{
											OFFSET -4.825756 1.085922 -2.321926
											CHANNELS 3 Xrotation Yrotation Zrotation
											JOINT R_Finger41
											{
												OFFSET -3.358307 -1.829651 -3.744390
												CHANNELS 3 Xrotation Yrotation Zrotation
												End Site
												{
													OFFSET 3.843273 2.955208 -2.267666
												}
											}
										}
									}
								}
							}
						}
					}
				}
			}
		}
		JOINT Tail01
		{
			OFFSET -0.000010 10.922326 -0.017508
			CHANNELS 3 Xrotation Yrotation Zrotation
			JOINT Tail02
			{
				OFFSET -0.000022 21.986111 0.000013
				CHANNELS 3 Xrotation Yrotation Zrotation
				JOINT Tail03
				{
					OFFSET -0.000022 21.986118 0.000002
					CHANNELS 3 Xrotation Yrotation Zrotation
					JOINT Tail04
					{
						OFFSET -0.000022 21.986122 0.000004
						CHANNELS 3 Xrotation Yrotation Zrotation
						JOINT Tail05
						{
							OFFSET -0.000022 21.986099 0.000010
							CHANNELS 3 Xrotation Yrotation Zrotation
							JOINT Tail06
							{
								OFFSET -0.000022 21.986099 0.000006
								CHANNELS 3 Xrotation Yrotation Zrotation
								JOINT Tail07
								{
									OFFSET -0.000022 21.986099 0.000000
									CHANNELS 3 Xrotation Yrotation Zrotation
									JOINT Tail08
									{
										OFFSET -0.000022 21.984848 0.000050
										CHANNELS 3 Xrotation Yrotation Zrotation
										JOINT Tail09
										{
											OFFSET -0.000025 21.926025 -1.606211
											CHANNELS 3 Xrotation Yrotation Zrotation
											JOINT Tail10
											{
												OFFSET -0.000027 21.750092 -3.203882
												CHANNELS 3 Xrotation Yrotation Zrotation
												End Site
												{
													OFFSET -0.000036 4.767395 21.461668
												}
											}
										}
									}
								}
							}
						}
					}
				}
			}
		}
		JOINT L_Thigh
		{
			OFFSET 24.788780 0.000021 -0.000034
			CHANNELS 3 Xrotation Yrotation Zrotation
			JOINT L_Calf
			{
				OFFSET 4.720837 4.161326 -21.049969
				CHANNELS 3 Xrotation Yrotation Zrotation
				JOINT L_Foot
				{
					OFFSET 2.154160 21.114433 -11.949743
					CHANNELS 3 Xrotation Yrotation Zrotation
					JOINT L_Toe0
					{
						OFFSET 4.557564 9.251841 -8.735286
						CHANNELS 3 Xrotation Yrotation Zrotation
						End Site
						{
							OFFSET 4.555542 -12.646044 1.018752
						}
					}
					JOINT L_Toe1
					{
						OFFSET 2.346291 5.845602 -11.687160
						CHANNELS 3 Xrotation Yrotation Zrotation
						End Site
						{
							OFFSET 5.347954 -12.298279 1.365644
						}
					}
					JOINT L_Toe2
					{
						OFFSET -0.356020 3.902458 -12.541145
						CHANNELS 3 Xrotation Yrotation Zrotation
						End Site
						{
							OFFSET 3.916235 -12.806129 1.542549
						}
					}
					JOINT L_Toe3
					{
						OFFSET -4.603447 3.183935 -12.435249
						CHANNELS 3 Xrotation Yrotation Zrotation
						End Site
						{
							OFFSET 3.810858 -12.587427 2.957583
						}
					}
					JOINT L_Toe4
					{
						OFFSET -7.144358 6.231495 -10.072764
						CHANNELS 3 Xrotation Yrotation Zrotation
						End Site
						{
							OFFSET 3.810858 -12.587425 2.957585
						}
					}
				}
			}
		}
		JOINT R_Thigh
		{
			OFFSET -24.788780 -0.000024 0.000034
			CHANNELS 3 Xrotation Yrotation Zrotation
			JOINT R_Calf
			{
				OFFSET -4.720922 4.161324 -21.049952
				CHANNELS 3 Xrotation Yrotation Zrotation
				JOINT R_Foot
				{
					OFFSET -2.154238 21.114414 -11.949730
					CHANNELS 3 Xrotation Yrotation Zrotation
					JOINT R_Toe0
					{
						OFFSET -4.557598 9.251823 -8.735270
						CHANNELS 3 Xrotation Yrotation Zrotation
						End Site
						{
							OFFSET -4.555508 -12.646051 1.018756
						}
					}
					JOINT R_Toe1
					{
						OFFSET -2.346325 5.845589 -11.687157
						CHANNELS 3 Xrotation Yrotation Zrotation
						End Site
						{
							OFFSET -5.347919 -12.298286 1.365654
						}
					}
					JOINT R_Toe2
					{
						OFFSET 0.355980 3.902462 -12.541145
						CHANNELS 3 Xrotation Yrotation Zrotation
						End Site
						{
							OFFSET -3.916199 -12.806131 1.542559
						}
					}
					JOINT R_Toe3
					{
						OFFSET 4.603411 3.183941 -12.435266
						CHANNELS 3 Xrotation Yrotation Zrotation
						End Site
						{
							OFFSET -3.810825 -12.587429 2.957591
						}
					}
					JOINT R_Toe4
					{
						OFFSET 7.144323 6.231503 -10.072779
						CHANNELS 3 Xrotation Yrotation Zrotation
						End Site
						{
							OFFSET -3.810825 -12.587433 2.957584
						}
					}
				}
			}
		}
	}
}
MOTION
Frames: 4
Frame Time: 0.033333
-0.000000 -4.934235 46.581905 0.000000 -0.000000 0.000044 -12.429394 -0.000126 -0.000006 10.834687 0.000006 0.000018 4.907424 -0.000003 -0.000003 -1.600696 0.000001 0.000017 -2.163954 0.000002 -0.000003 -17.583818 0.000002 0.000014 -13.013542 0.000008 -0.000015 3.114129 -0.012173 -4.859104 12.939851 -0.000100 0.000015 0.000009 0.000000 0.000000 0.000022 0.000000 -0.000000 -0.000003 0.000007 -0.000015 1.670336 1.204640 -17.007335 0.000005 -0.000003 -0.000002 0.000006 0.000005 0.000002 -0.000000 0.000000 -0.000005 1.670558 -1.204895 17.007665 -0.000001 -0.000001 -0.000000 -0.000001 0.000004 -0.000004 -0.000004 -0.000000 -0.000000 -0.001034 -0.897670 11.904297 35.219088 -5.260357 -33.261976 -3.662922 0.604394 -0.955805 -83.058515 -10.288899 -18.041965 4.814251 45.237883 32.496807 0.108383 -0.103821 0.046720 31.239885 13.715134 -10.715220 -21.103485 -3.971327 -2.962970 30.256532 6.344419 -6.448663 -32.343282 -14.390351 -8.157533 20.872338 -11.244814 -8.185808 -18.722428 -18.085390 -5.094120 18.635512 -29.682653 -0.393826 0.555238 0.804620 0.101803 -0.001053 0.897358 -11.904319 16.480978 9.536965 32.849317 -6.432824 -1.102518 1.653641 -65.396473 5.877768 4.899157 4.813897 -45.237822 -32.497108 0.108386 0.103824 -0.046710 31.239929 -13.715165 10.714981 -21.103478 3.971281 2.963141 30.256573 -6.344448 6.448434 -32.343302 14.390249 8.157745 20.872419 11.244833 8.185626 -18.722460 18.085333 5.094258 18.635555 29.682660 0.393673 0.555240 -0.804612 -0.101804 -8.814525 0.000005 0.000033 -7.322153 -1.231628 3.950032 4.441451 -0.236784 4.130698 11.137130 -0.636655 -5.348721 6.970199 -0.180437 -5.341282 2.456174 -0.220568 -9.484034 1.583608 -0.521012 -9.446333 2.604558 -0.735966 7.208288 1.855832 0.218806 7.088251 2.504827 0.702949 7.052491 -32.101821 -15.804764 4.782648 17.627584 1.107075 3.918787 -46.405774 -16.339290 -7.794505 -2.318589 -4.298933 -0.446775 8.087303 0.872399 0.413565 17.133844 6.636279 3.687459 20.253543 6.370515 -9.434380 -1.696112 7.323593 -8.103862 -10.999779 11.499775 -13.885915 10.706806 -0.528215 -2.420467 -60.885454 14.710916 9.666140 -2.318606 4.298943 0.446768 8.087303 -0.872363 -0.413609 17.133827 -6.636221 -3.687519 20.253572 -6.370336 9.434252 -1.696082 -7.323593 8.103852 
-0.000000 -4.929633 46.578892 0.000000 -0.000000 0.000044 -12.426330 -0.000126 0.000007 10.826696 0.000006 0.000018 4.911877 -0.000003 -0.000003 -1.595747 0.000001 0.000017 -2.163954 0.000002 -0.000003 -17.609032 0.000002 0.000014 -13.013540 0.000008 -0.000015 3.063196 0.019410 -4.860480 12.943335 -0.000100 0.000015 0.000009 -0.000000 -0.000000 0.000023 0.000000 -0.000000 -0.000004 0.000007 -0.000018 1.670334 1.204639 -17.007342 0.000005 -0.000002 -0.000002 0.000008 0.000005 0.000002 0.000002 0.000000 -0.000003 1.670557 -1.204897 17.007649 -0.000002 -0.000002 -0.000001 -0.000003 0.000006 -0.000001 -0.000004 0.000000 -0.000000 -0.001051 -0.894690 11.903429 35.220625 -5.273979 -33.252841 -3.701260 0.611046 -0.965618 -83.031475 -10.295243 -18.041537 4.814244 45.237873 32.496814 0.108386 -0.103832 0.046718 31.239882 13.715134 -10.715216 -21.103483 -3.971329 -2.962969 30.256529 6.344419 -6.448661 -32.343278 -14.390353 -8.157525 20.872338 -11.244813 -8.185801 -18.722431 -18.085392 -5.094120 18.635510 -29.682653 -0.393833 0.555237 0.804616 0.101803 -0.001076 0.894377 -11.903408 16.477160 9.545074 32.843388 -6.455286 -1.106699 1.659213 -65.376296 5.879168 4.896718 4.813891 -45.237815 -32.497111 0.108383 0.103821 -0.046713 31.239933 -13.715165 10.714980 -21.103478 3.971277 2.963142 30.256580 -6.344447 6.448432 -32.343306 14.390254 8.157746 20.872414 11.244831 8.185623 -18.722464 18.085337 5.094265 18.635558 29.682657 0.393670 0.555239 -0.804615 -0.101806 -8.809975 0.000005 0.000033 -7.320757 -1.231628 3.950024 4.441966 -0.236696 4.130696 11.137670 -0.636498 -5.348716 6.969039 -0.180500 -5.341283 2.455993 -0.220617 -9.484034 1.583624 -0.520853 -9.446330 2.604400 -0.736067 7.208261 1.855697 0.218497 7.088248 2.504827 0.702949 7.052489 -32.121297 -15.804581 4.776908 17.644216 1.108683 3.922297 -46.402297 -16.339512 -7.795249 -2.318588 -4.298930 -0.446773 8.087303 0.872397 0.413565 17.133844 6.636280 3.687458 20.253543 6.370519 -9.434378 -1.696112 7.323596 -8.103864 -11.019721 11.504263 -13.877956 10.732010 -0.529988 -2.426039 -60.898014 14.707740 9.670733 -2.318604 4.298947 0.446766 8.087303 -0.872360 -0.413609 17.133830 -6.636216 -3.687519 20.253575 -6.370334 9.434251 -1.696083 -7.323593 8.103850 
-0.000000 -4.918121 46.578888 0.000000 -0.000000 0.000044 -12.419486 -0.000123 0.000014 10.820830 0.000006 0.000018 4.911795 -0.000003 -0.000003 -1.595978 0.000001 0.000017 -2.163954 0.000002 -0.000003 -17.632953 0.000002 0.000014 -13.013543 0.000008 -0.000015 3.017758 0.050207 -4.861809 12.953280 -0.000100 0.000014 0.000010 0.000000 0.000000 0.000024 0.000000 -0.000000 -0.000004 0.000007 -0.000017 1.670331 1.204636 -17.007340 -0.000000 -0.000001 0.000000 0.000006 0.000005 0.000003 0.000002 0.000000 -0.000005 1.670561 -1.204896 17.007653 -0.000002 -0.000003 0.000002 -0.000002 0.000004 -0.000001 -0.000004 -0.000000 -0.000000 -0.001068 -0.886290 11.902554 35.221411 -5.294863 -33.239140 -3.750818 0.619661 -0.978298 -82.990794 -10.302564 -18.037845 4.814241 45.237876 32.496817 0.108388 -0.103827 0.046718 31.239885 13.715135 -10.715220 -21.103486 -3.971330 -2.962967 30.256532 6.344421 -6.448661 -32.343282 -14.390353 -8.157528 20.872334 -11.244814 -8.185804 -18.722431 -18.085395 -5.094118 18.635514 -29.682660 -0.393830 0.555237 0.804620 0.101803 -0.001087 0.885979 -11.902577 16.464465 9.555480 32.839007 -6.471797 -1.109771 1.663305 -65.350212 5.878826 4.889993 4.813900 -45.237825 -32.497108 0.108387 0.103821 -0.046710 31.239929 -13.715162 10.714984 -21.103476 3.971276 2.963139 30.256580 -6.344449 6.448434 -32.343302 14.390254 8.157743 20.872418 11.244831 8.185631 -18.722462 18.085333 5.094265 18.635558 29.682657 0.393682 0.555239 -0.804613 -0.101809 -8.810036 0.000005 0.000033 -7.321485 -1.231628 3.950025 4.441191 -0.236570 4.130697 11.136918 -0.636241 -5.348721 6.969603 -0.180593 -5.341283 2.456766 -0.220653 -9.484035 1.584518 -0.520579 -9.446330 2.605143 -0.735876 7.208222 1.856500 0.218356 7.088230 2.504828 0.702949 7.052490 -32.149475 -15.802054 4.773355 17.651190 1.109360 3.923773 -46.366825 -16.345310 -7.795866 -2.318587 -4.298940 -0.446772 8.087305 0.872392 0.413568 17.133847 6.636278 3.687460 20.253545 6.370519 -9.434380 -1.696111 7.323594 -8.103862 -11.053492 11.507889 -13.870417 10.754480 -0.531572 -2.431004 -60.901443 14.705472 9.677797 -2.318605 4.298944 0.446770 8.087305 -0.872365 -0.413609 17.133825 -6.636217 -3.687518 20.253575 -6.370340 9.434253 -1.696081 -7.323593 8.103850 
-0.000000 -4.899998 46.581905 0.000000 -0.000000 0.000044 -12.408932 -0.000126 0.000028 10.816977 0.000006 0.000018 4.907374 -0.000003 -0.000003 -1.600779 0.000001 0.000017 -2.163954 0.000002 -0.000003 -17.655616 0.000002 0.000014 -13.013541 0.000008 -0.000015 2.977516 0.080082 -4.863107 12.972440 -0.000100 0.000016 0.000009 0.000000 0.000000 0.000021 0.000000 0.000001 -0.000004 0.000007 -0.000015 1.670329 1.204633 -17.007345 0.000001 -0.000003 -0.000003 0.000006 0.000007 -0.000005 -0.000000 0.000000 -0.000007 1.670563 -1.204895 17.007642 -0.000000 0.000003 -0.000000 -0.000003 0.000005 -0.000004 -0.000004 0.000000 -0.000000 -0.001094 -0.872620 11.901830 35.220967 -5.322950 -33.221036 -3.813187 0.630519 -0.994236 -82.936276 -10.311052 -18.031093 4.814248 45.237883 32.496821 0.108390 -0.103825 0.046720 31.239885 13.715132 -10.715219 -21.103480 -3.971328 -2.962969 30.256536 6.344421 -6.448667 -32.343282 -14.390351 -8.157530 20.872336 -11.244811 -8.185806 -18.722428 -18.085393 -5.094121 18.635514 -29.682650 -0.393830 0.555240 0.804617 0.101800 -0.001128 0.872308 -11.901825 16.442984 9.568259 32.836015 -6.483214 -1.111900 1.666122 -65.318089 5.876899 4.879133 4.813896 -45.237818 -32.497111 0.108386 0.103817 -0.046716 31.239933 -13.715166 10.714987 -21.103481 3.971279 2.963139 30.256577 -6.344447 6.448433 -32.343306 14.390252 8.157747 20.872423 11.244829 8.185627 -18.722460 18.085333 5.094261 18.635562 29.682657 0.393674 0.555243 -0.804619 -0.101805 -8.814550 0.000005 0.000033 -7.324245 -1.231628 3.950024 4.439169 -0.236406 4.130699 11.134912 -0.635886 -5.348713 6.971820 -0.180716 -5.341283 2.458460 -0.220676 -9.484035 1.586258 -0.520193 -9.446331 2.606750 -0.735384 7.208172 1.858202 0.218405 7.088210 2.504826 0.702949 7.052490 -32.185641 -15.797145 4.772126 17.648136 1.109061 3.923127 -46.389422 -16.344040 -7.812099 -2.318587 -4.298930 -0.446775 8.087303 0.872400 0.413567 17.133840 6.636282 3.687457 20.253545 6.370520 -9.434376 -1.696113 7.323595 -8.103864 -11.100242 11.510566 -13.863403 10.773861 -0.532939 -2.435290 -60.892448 14.704800 9.687074 -2.318604 4.298944 0.446766 8.087300 -0.872358 -0.413609 17.133825 -6.636220 -3.687519 20.253568 -6.370337 9.434256 -1.696083 -7.323594 8.103854 
